# xmcd
#
# Track frame offsets:
#	150
#	9172
#	19494
#	27317
#	36731
#	45728
#	53395
#	64413
#	74117
#	85385
#	95927
#	104959
#	114790
#	124516
#	130753
#	136940
#	149096
#	162081
#	175370
#	186787
#	199075
#	211897
#	224210
#	235794
#	248571
#	261132
#	273593
#
# Disc length: 3791 seconds
#
# Revision: 0
# Processed by: cddbd v1.5.2PL0 Copyright (c) Steve Scherf et al.
# Submitted via: EasyCDDAExtractor 2010.6.0.0
#
DISCID=a50ecd1b
DTITLE=Johnny Bond - Fabulous Johnny Bond
DYEAR=1900
DGENRE=
TTITLE0=Cherokee Waltz
TTITLE1=Mister And Mississippi
TTITLE2=Starlight On The Prairie
TTITLE3=First Rose
TTITLE4=What Would You Do If You Were Me
TTITLE5=Kentucky Waltz
TTITLE6=I Found You Out
TTITLE7=Lily Of The Valley
TTITLE8=They Got Me
TTITLE9=I Love You Because
TTITLE10=Sparkling Blue Eyes Waltz
TTITLE11=Texas Cannonball
TTITLE12=Hills Of Kentucky
TTITLE13=I'll Step Aside
TTITLE14=Oklahoma Waltz
TTITLE15=What's Been Goin' On (While I've Been Gone)
TTITLE16=Wasted Tears
TTITLE17=Read It And Weep
TTITLE18=John's Other Wife
TTITLE19=I Won't Stand In Your Way
TTITLE20=Tennessee Saturday Night
TTITLE21=Heart Full Of Love (For A Handful Of Kisses)
TTITLE22=Till The End Of The World
TTITLE23=Somebody Loves You
TTITLE24=Put Me To Bed No. 2
TTITLE25=Baby You're Thru Foolin' Me
TTITLE26=It Ain't A Gonna Happen To Me
EXTD=
EXTT0=
EXTT1=
EXTT2=
EXTT3=
EXTT4=
EXTT5=
EXTT6=
EXTT7=
EXTT8=
EXTT9=
EXTT10=
EXTT11=
EXTT12=
EXTT13=
EXTT14=
EXTT15=
EXTT16=
EXTT17=
EXTT18=
EXTT19=
EXTT20=
EXTT21=
EXTT22=
EXTT23=
EXTT24=
EXTT25=
EXTT26=
PLAYORDER=
